<svg xmlns="http://www.w3.org/2000/svg" viewBox="0 0 550 150" width="100%" height="100%">
  <defs>
    <linearGradient id="emeraldPrimary" x1="0%" y1="0%" x2="100%" y2="100%">
      <stop offset="0%" stop-color="#059669" />
      <stop offset="100%" stop-color="#10B981" />
    </linearGradient>
    
    <linearGradient id="emeraldLight" x1="100%" y1="0%" x2="0%" y2="100%">
      <stop offset="0%" stop-color="#34D399" />
      <stop offset="100%" stop-color="#10B981" />
    </linearGradient>
  </defs>

  <g transform="translate(20, 20) scale(1.1)">
    <path d="M35 15 C35 10 39 6 44 6 H56 C61 6 65 10 65 15 V35 H85 C90 35 94 39 94 44 V56 C94 61 90 65 85 65 H65 V85 C65 90 61 94 56 94 H44 C39 94 35 90 35 85 V65 H15 C10 65 6 61 6 56 V44 C6 39 10 35 15 35 H35 V15 Z" fill="url(#emeraldPrimary)" />
    
    <path d="M15 65 C40 65 55 80 65 94 C65 90 65 85 65 85 C50 60 30 50 6 56 C6 61 10 65 15 65 Z" fill="#047857" opacity="0.3"/>
    <path d="M35 15 C35 30 50 45 85 35 C90 35 94 39 94 44 C80 40 55 25 44 6 C39 6 35 10 35 15 Z" fill="url(#emeraldLight)" opacity="0.9"/>

    <circle cx="82" cy="15" r="5" fill="#34D399" />
    <circle cx="97" cy="28" r="3" fill="#10B981" />
    <circle cx="68" cy="4" r="3.5" fill="#059669" />
    <path d="M63 9 L78 13 M85 18 L95 26" stroke="#34D399" stroke-width="2.5" stroke-linecap="round"/>
    
    <circle cx="50" cy="50" r="9" fill="#FFFFFF" />
    <circle cx="50" cy="50" r="3.5" fill="#10B981" />
  </g>

  <g transform="translate(150, 0)">
    <text x="0" y="85" font-family="'Segoe UI', Roboto, Helvetica, Arial, sans-serif" font-size="58" font-weight="bold" fill="#2C3E50">
      Care<tspan fill="#10B981">Triage</tspan>
    </text>
    
    <text x="4" y="120" font-family="'Segoe UI', Roboto, Helvetica, Arial, sans-serif" font-size="15" font-weight="600" fill="#7F8C8D" letter-spacing="3">
      AI TRIAGE &amp; SYMPTOM CHECKER
    </text>
  </g>
</svg>
